<?xml version="1.0" encoding="UTF-8"?>
<!DOCTYPE svg PUBLIC "-//W3C//DTD SVG 1.1//EN" "http://www.w3.org/Graphics/SVG/1.1/DTD/svg11.dtd">
<!-- Creator: CorelDRAW X6 -->
<svg xmlns="http://www.w3.org/2000/svg" xml:space="preserve" width="10.82in" height="3.5in" version="1.1" style="shape-rendering:geometricPrecision; text-rendering:geometricPrecision; image-rendering:optimizeQuality; fill-rule:evenodd; clip-rule:evenodd"
viewBox="0 0 10820 3500"
 xmlns:xlink="http://www.w3.org/1999/xlink">
 <defs>
  <style type="text/css">
   <![CDATA[
    .fil2 {fill:#FFF212}
    .fil0 {fill:black}
    .fil1 {fill:red}
    .fil3 {fill:yellow}
   ]]>
  </style>
 </defs>
 <g id="Layer_x0020_1">
  <metadata id="CorelCorpID_0Corel-Layer"/>
  <g id="_192058912">
   <path class="fil0" d="M1432 2433l-319 577 1865 -600 -72 830 537 -890 289 1034 1260 -821 555 715 412 -721 960 803 397 -940 529 869 300 -758 390 921 116 -681 738 170 -377 -611c-43,-72 52,-37 52,-37 31,21 57,44 85,66 49,40 101,66 215,105l237 125c146,101 186,75 279,113 87,79 180,63 262,75 228,322 577,-81 263,-257 0,0 122,-173 126,-533 -2,-153 90,-155 158,-208 104,-32 108,-81 118,-160 9,-73 -39,-167 -134,-153 -115,0 -141,30 -212,46 -33,-101 -114,-240 -236,-255 -122,-15 -167,5 -301,107 -127,-153 -224,-473 -409,-222 -112,-71 -125,-172 -335,-213l153 -617 -852 376 -203 -485 -725 883 -655 -950 -961 564 -253 -540 -427 366 -160 -180 -200 799 -199 -1110 -954 785 -330 -688 -600 547 -206 -384 -297 344 -1036 -530 475 945c-103,-59 -258,-147 -402,-51 -113,57 -346,107 -326,235 -152,-17 -310,-82 -420,10 -168,80 -420,153 -522,307 -28,43 -73,167 -68,242 28,411 477,461 408,786 -69,325 286,334 356,72 89,12 150,34 218,19 41,-9 84,-32 138,-77 16,-13 18,-36 51,-47 69,-23 123,-65 127,-66 37,-10 83,-30 126,-52z"/>
   <path class="fil1" d="M4116 2655l150 0 184 -421 77 196 66 19 60 141 73 61 585 107 164 -336 292 5 252 309 487 -102c381,-11 580,-53 755,-177l601 7 37 -541 56 1 -29 492 105 1 -6 116 638 0 173 -1716 -120 -3 10 -120 -605 -3 -73 486 -58 1 23 -423 -100 -1 -2 -139 -626 1 -15 127c-179,-80 -341,-215 -635,-201 -294,14 -752,189 -684,801l-432 -689 -505 1008 -430 -1007 -50 -25 -147 -302 -416 1036 -649 -904 -75 320c-112,-49 -267,-164 -426,-140 -233,-41 -666,111 -693,548 -10,158 7,285 221,496l-329 390c251,511 644,467 951,455l144 1 -7 181 715 -2 -2 -397 43 -20 254 365z"/>
   <path class="fil2" d="M492 2140c-131,-130 -341,-259 -217,-537l-62 -46c-145,154 -108,363 126,581 240,232 238,346 173,533l75 45c80,-212 119,-361 -95,-576z"/>
   <path class="fil2" d="M982 2216l-365 -828 -84 35 320 750c75,153 85,387 -86,43l-338 -750 -89 37 336 789c128,247 219,283 293,262 75,-22 81,-188 13,-338z"/>
   <path class="fil2" d="M1168 2169c197,-269 9,-813 -430,-836l414 1103 93 -40 -77 -227z"/>
   <path class="fil0" d="M918 1494l194 551c84,-75 2,-466 -194,-551z"/>
   <polygon class="fil2" points="1305,1157 1116,1228 1467,2316 1697,2242 1665,2145 1540,2186 1383,1725 1498,1700 1473,1608 1351,1632 1236,1273 1331,1245 "/>
   <path class="fil2" d="M1783 1909c144,28 241,233 240,233l84 -35c-46,-107 -103,-204 -265,-298 0,0 34,-62 44,-135 9,-63 -2,-147 -11,-212 -25,-183 -220,-358 -433,-366l325 1113 93 -20 -78 -281z"/>
   <path class="fil0" d="M1599 1267l142 494c91,-75 54,-409 -142,-494z"/>
   <path class="fil3" d="M9434 2054c100,108 58,354 59,355l96 27c26,-113 53,-258 -43,-417 -5,-8 13,-17 29,-25 19,-10 37,-20 55,-38 47,-48 103,-110 142,-182 88,-162 48,-449 -119,-581l-404 1100 90 51 95 -290z"/>
   <path class="fil0" d="M9680 1404l-178 517c91,-75 270,-148 178,-517z"/>
   <path class="fil3" d="M9299 1633c-2,-6 7,-11 12,-16 11,-10 27,-19 34,-32 49,-86 66,-158 65,-233 -1,-120 -58,-226 -166,-289l-365 1144c330,38 498,-267 419,-574z"/>
   <path class="fil0" d="M9277 1247l-84 315c96,-26 162,-168 84,-315z"/>
   <path class="fil0" d="M9165 1668l-140 412c128,-6 272,-312 140,-412z"/>
   <circle class="fil3" cx="10325" cy="2700" r="60"/>
   <path class="fil3" d="M10017 2337l284 -690c60,-112 -12,-207 -90,-237 -63,-24 -152,-29 -224,138l-278 684c-71,152 -35,250 35,284 84,40 216,-13 272,-179z"/>
   <path class="fil0" d="M9807 2266c-34,76 -46,127 -8,151 27,17 72,-8 109,-117l279 -662c82,-152 -31,-226 -111,-30 -79,195 -178,443 -269,659z"/>
   <path class="fil3" d="M10649 1604c-606,85 -147,860 -650,923l-1 91c646,-54 181,-882 652,-917l-1 -98z"/>
   <path class="fil0" d="M3369 1983c-23,-555 -568,-378 -617,-629 -14,-148 186,-138 297,-72l125 70 200 -239c8,-10 -187,-183 -479,-175 -194,-4 -524,53 -528,416 3,267 163,346 291,416 110,53 388,119 304,260 -29,41 -83,153 -312,41l-140 -73 -197 226c496,451 1088,105 1055,-241z"/>
   <polygon class="fil0" points="5097,2378 4485,866 4092,1858 3477,1004 3264,2590 3660,2591 3703,1869 4176,2541 4492,1768 4714,2409 "/>
   <polygon class="fil0" points="6412,2505 5611,1085 4881,2544 5204,2608 5623,1680 5801,1992 5486,1987 5351,2288 5894,2288 6062,2584 "/>
   <path class="fil0" d="M7361 1953c-18,-663 -701,-393 -750,-683 21,-163 232,-151 358,-76l72 43 197 -267c8,-11 -137,-183 -474,-161 -194,-4 -582,114 -582,495 -16,336 267,435 395,465 633,118 308,424 -31,306l-102 -49 -197 233c338,410 1132,227 1114,-307z"/>
   <polygon class="fil0" points="8539,2417 8705,932 8349,933 8286,1460 7821,1425 7885,875 7521,873 7363,2320 7729,2320 7797,1755 8250,1785 8182,2421 "/>
   <polygon class="fil3" points="8426,2303 8591,818 8236,820 8173,1346 7708,1311 7771,761 7407,760 7250,2207 7615,2206 7683,1641 8137,1671 8069,2308 "/>
   <path class="fil3" d="M7248 1839c-18,-663 -701,-393 -750,-683 21,-163 232,-151 358,-76l72 43 197 -267c8,-11 -137,-183 -474,-161 -194,-4 -582,114 -582,495 -16,336 267,435 395,465 633,118 308,424 -31,306l-102 -49 -197 233c338,410 1132,227 1114,-307z"/>
   <polygon class="fil3" points="6327,2391 5526,972 4813,2373 5109,2529 5538,1566 5716,1879 5401,1874 5266,2175 5809,2174 5977,2470 "/>
   <polygon class="fil3" points="5058,2322 4399,696 4007,1687 3392,833 3179,2419 3574,2421 3618,1699 4090,2371 4407,1597 4663,2352 "/>
   <path class="fil3" d="M3256 1841c-23,-555 -568,-378 -617,-629 -14,-148 186,-138 297,-72l125 70 200 -239c8,-10 -187,-183 -479,-175 -194,-4 -524,53 -528,416 3,267 163,346 291,416 110,53 388,119 304,260 -29,41 -83,153 -312,41l-140 -73 -197 226c496,451 1088,105 1055,-241z"/>
  </g>
 </g>
</svg>
